<svg height="506pt" viewBox="0 -4 506.53244 506" width="506pt" xmlns="http://www.w3.org/2000/svg"><path d="m17.355469 353.878906h52.066406v-208.269531h-52.066406c-9.585938 0-17.355469 7.769531-17.355469 17.355469v173.558594c0 9.585937 7.769531 17.355468 17.355469 17.355468zm0 0"/><path d="m359.273438 43.035156c55.140624 54.65625 86.160156 129.074219 86.160156 206.710938 0 77.640625-31.019532 152.058594-86.160156 206.714844l43.105468 42.765624c66.648438-65.90625 104.152344-155.746093 104.152344-249.480468s-37.503906-183.570313-104.152344-249.480469zm0 0"/><path d="m316.164062 413.691406c43.734376-43.347656 68.335938-102.371094 68.335938-163.945312 0-61.578125-24.601562-120.601563-68.335938-163.945313l-43.105468 42.769531c32.324218 32.035157 50.511718 75.664063 50.511718 121.175782 0 45.511718-18.1875 89.136718-50.511718 121.175781zm0 0"/><path d="m193.691406 46.332031-106.910156 99.277344v208.269531l106.910156 99.277344c2.527344 2.34375 6.199219 2.96875 9.359375 1.597656 3.160157-1.375 5.210938-4.488281 5.21875-7.933594v-140.136718l21.695313 21.511718c20.914062-20.75 32.671875-48.992187 32.671875-78.449218 0-29.460938-11.757813-57.699219-32.671875-78.449219l-21.695313 21.507813v-140.136719c-.007812-3.445313-2.058593-6.558594-5.21875-7.929688-3.160156-1.375-6.832031-.746093-9.359375 1.59375zm0 0"/></svg>